<?xml version="1.0" standalone="no"?>
<!DOCTYPE svg PUBLIC "-//W3C//DTD SVG 20010904//EN"
 "http://www.w3.org/TR/2001/REC-SVG-20010904/DTD/svg10.dtd">
<svg version="1.0" xmlns="http://www.w3.org/2000/svg"
 width="655.000000pt" height="655.000000pt" viewBox="0 0 655.000000 655.000000"
 preserveAspectRatio="xMidYMid meet">

<g transform="translate(0.000000,655.000000) scale(0.100000,-0.100000)"
fill="#000000" stroke="none">
<path d="M3261 6392 c-111 -615 -362 -1195 -742 -1713 -27 -37 -49 -69 -49
-72 0 -3 32 -55 70 -114 39 -59 220 -357 402 -660 183 -304 334 -553 337 -553
8 0 39 50 351 571 147 245 311 513 364 596 53 83 96 155 96 159 0 5 -41 65
-90 134 -156 218 -337 542 -450 805 -80 185 -185 511 -224 697 -20 91 -36 176
-36 187 0 47 -18 25 -29 -37z"/>
<path d="M1840 4039 c-104 -81 -364 -251 -505 -330 -299 -167 -599 -289 -890
-363 -115 -29 -315 -66 -357 -66 -62 0 -22 -17 80 -33 527 -84 1001 -289 1582
-685 85 -58 160 -105 165 -105 6 0 58 31 115 70 279 187 733 466 1093 673 111
64 125 74 110 85 -10 7 -144 84 -298 172 -444 254 -719 422 -929 570 -49 35
-91 63 -95 63 -3 0 -35 -23 -71 -51z"/>
<path d="M4497 3985 c-82 -57 -241 -160 -355 -228 -252 -151 -767 -451 -805
-468 -27 -12 -37 -29 -17 -29 31 0 928 -541 1210 -730 135 -90 113 -90 232 -6
386 270 699 442 1033 567 211 79 466 144 643 164 34 4 64 10 66 14 3 4 -50 15
-117 25 -533 81 -1120 342 -1634 727 -50 38 -95 69 -100 68 -4 0 -75 -47 -156
-104z"/>
<path d="M3056 2894 c-121 -201 -293 -486 -384 -633 -90 -146 -173 -280 -183
-296 l-18 -31 75 -109 c361 -525 611 -1103 705 -1625 6 -36 13 -72 14 -80 2
-8 4 -24 4 -34 2 -41 14 -1 42 136 111 547 311 1018 649 1527 66 99 120 185
120 191 0 7 -21 44 -47 83 -70 109 -183 294 -438 717 -219 364 -315 521 -318
520 -1 -1 -101 -165 -221 -366z"/>
</g>
</svg>
