<?xml version="1.0" standalone="no"?>
<!DOCTYPE svg PUBLIC "-//W3C//DTD SVG 20010904//EN"
 "http://www.w3.org/TR/2001/REC-SVG-20010904/DTD/svg10.dtd">
<svg version="1.0" xmlns="http://www.w3.org/2000/svg"
 width="600.000000pt" height="600.000000pt" viewBox="0 0 600.000000 600.000000"
 preserveAspectRatio="xMidYMid meet">

<g transform="translate(0.000000,600.000000) scale(0.100000,-0.100000)"
fill="#000000" stroke="none">
<path d="M2730 5989 c-602 -60 -1144 -279 -1610 -650 -133 -106 -352 -324
-455 -454 -679 -851 -850 -1977 -454 -2985 72 -185 224 -473 301 -572 12 -15
58 14 483 310 259 180 481 334 493 343 l23 17 -42 68 c-59 97 -131 251 -172
370 -224 649 -45 1380 456 1861 607 583 1531 667 2229 203 169 -112 270 -207
443 -417 l20 -24 493 342 492 342 -17 26 c-36 57 -169 215 -260 311 -463 487
-1092 804 -1773 895 -148 20 -514 28 -650 14z"/>
<path d="M4430 3224 c-729 -509 -1338 -936 -1355 -949 l-30 -24 788 -1 c433 0
787 -3 787 -7 0 -3 -19 -40 -41 -82 -270 -493 -732 -827 -1284 -927 -125 -23
-461 -26 -575 -6 -257 46 -477 128 -663 248 l-68 44 -27 -18 c-55 -38 -987
-695 -991 -699 -17 -14 209 -197 389 -315 376 -247 789 -400 1260 -465 156
-21 546 -24 700 -5 910 113 1689 592 2187 1345 521 787 636 1795 306 2688 -21
55 -42 99 -47 99 -6 -1 -607 -417 -1336 -926z"/>
</g>
</svg>
