<?xml version="1.0" standalone="no"?>
<!DOCTYPE svg PUBLIC "-//W3C//DTD SVG 20010904//EN"
 "http://www.w3.org/TR/2001/REC-SVG-20010904/DTD/svg10.dtd">
<svg version="1.0" xmlns="http://www.w3.org/2000/svg"
 width="496.000000pt" height="496.000000pt" viewBox="0 0 496.000000 496.000000"
 preserveAspectRatio="xMidYMid meet">

<g transform="translate(0.000000,496.000000) scale(0.100000,-0.100000)"
fill="#000000" stroke="none">
<path d="M2220 4869 c-969 -106 -1783 -790 -2054 -1726 -32 -112 -67 -290 -81
-414 l-6 -56 644 -266 644 -266 74 39 c87 45 170 68 277 77 l77 6 282 409 282
408 10 93 c24 233 114 421 277 578 112 107 210 164 364 214 73 24 106 28 235
32 136 4 159 2 247 -21 561 -144 847 -757 594 -1271 -147 -299 -420 -482 -761
-511 l-80 -6 -407 -290 -408 -290 0 -61 c-1 -263 -200 -526 -464 -614 -72 -24
-95 -27 -216 -27 -116 0 -144 3 -200 23 -137 49 -233 114 -319 217 -61 73 -91
128 -122 219 l-27 80 -183 76 c-581 241 -723 298 -727 295 -7 -7 26 -109 74
-227 317 -792 1022 -1350 1874 -1485 164 -26 559 -27 715 -1 535 89 992 322
1351 689 174 177 271 305 387 508 152 266 251 562 292 873 20 155 20 459 0
614 -93 710 -495 1338 -1105 1727 -109 69 -358 190 -480 231 -273 94 -459 126
-755 130 -121 2 -258 -1 -305 -6z"/>
<path d="M3128 3684 c-165 -39 -318 -164 -397 -321 -92 -183 -78 -422 34 -590
73 -111 188 -201 308 -243 87 -31 258 -38 347 -15 208 54 373 217 436 431 23
79 23 229 0 309 -62 212 -232 377 -441 430 -73 18 -210 18 -287 -1z m281 -153
c164 -51 282 -188 311 -362 37 -216 -101 -436 -312 -500 -56 -17 -87 -20 -156
-17 -146 8 -255 66 -345 184 -103 136 -114 336 -26 490 32 56 121 144 173 171
103 54 246 68 355 34z"/>
<path d="M1637 2076 c-26 -7 -49 -15 -52 -18 -2 -2 55 -28 128 -58 72 -29 157
-66 187 -81 72 -36 142 -109 177 -184 24 -52 28 -73 28 -150 0 -80 -3 -97 -31
-155 -40 -83 -102 -145 -184 -184 -59 -28 -74 -31 -160 -31 -95 1 -96 1 -254
68 -88 37 -163 67 -168 67 -16 0 25 -64 74 -117 201 -212 527 -216 733 -8 63
63 116 156 134 235 17 75 13 201 -9 272 -38 125 -142 249 -253 302 -110 54
-246 70 -350 42z"/>
</g>
</svg>
