<?xml version="1.0" standalone="no"?>
<!DOCTYPE svg PUBLIC "-//W3C//DTD SVG 20010904//EN"
 "http://www.w3.org/TR/2001/REC-SVG-20010904/DTD/svg10.dtd">
<svg version="1.0" xmlns="http://www.w3.org/2000/svg"
 width="400.000000pt" height="400.000000pt" viewBox="0 0 400.000000 400.000000"
 preserveAspectRatio="xMidYMid meet">

<g transform="translate(0.000000,400.000000) scale(0.100000,-0.100000)"
fill="#000000" stroke="none">
<path d="M909 3706 c-34 -153 57 -328 209 -403 51 -25 68 -28 154 -28 54 0 98
-3 98 -6 0 -3 -17 -14 -37 -25 -32 -16 -59 -19 -168 -19 l-130 0 -85 -42
c-373 -183 -626 -491 -732 -893 -26 -97 -31 -135 -32 -240 0 -69 3 -138 7
-154 8 -29 9 -27 31 35 13 36 35 88 50 116 31 56 115 167 122 160 2 -2 -9 -34
-26 -71 -177 -395 -152 -871 64 -1194 24 -37 62 -84 84 -105 l39 -38 -14 63
c-15 71 -18 257 -5 303 9 29 10 27 21 -30 86 -420 313 -700 671 -830 80 -28
229 -64 270 -65 l24 0 -24 16 c-49 33 -113 100 -151 158 -22 33 -39 63 -39 67
0 5 35 -15 78 -44 172 -118 429 -187 693 -187 176 0 353 45 430 110 37 31 40
29 -51 50 -165 39 -321 156 -418 315 -17 28 -45 93 -63 145 -30 87 -33 105
-33 220 0 111 3 134 28 205 35 102 70 163 143 250 l59 70 -106 1 c-124 1 -201
19 -316 74 -258 124 -424 367 -439 643 l-5 82 20 -90 c56 -259 167 -420 370
-538 72 -41 218 -86 322 -97 121 -14 240 0 358 40 252 87 474 55 684 -100 85
-62 155 -84 245 -78 78 6 148 38 205 95 101 100 125 280 52 393 -12 19 -28 60
-34 90 -13 56 -48 140 -74 174 -13 17 -16 8 -32 -93 -20 -120 -18 -141 14
-141 11 0 20 -4 20 -10 0 -5 -15 -10 -34 -10 -36 0 -46 12 -46 59 0 71 -69
211 -104 211 -9 0 -15 -19 -20 -57 -8 -66 -45 -211 -56 -218 -4 -2 -57 9 -119
25 -61 17 -171 39 -244 50 -163 25 -227 43 -265 75 -32 27 -59 81 -47 93 4 4
10 1 12 -6 9 -25 56 -73 87 -89 32 -17 120 -43 145 -43 8 0 -4 13 -25 29 -83
61 -89 72 -89 174 0 82 3 99 31 157 35 74 101 152 175 206 27 20 48 38 45 41
-8 8 -125 -26 -178 -53 -28 -14 -76 -50 -105 -80 -30 -30 -56 -54 -59 -54 -13
0 36 72 83 121 85 90 194 129 352 129 81 0 268 -24 279 -35 4 -4 6 -63 5 -131
-2 -140 -1 -142 63 -96 55 40 95 89 123 150 21 44 28 52 52 52 15 0 31 -4 34
-10 3 -5 0 -10 -8 -10 -12 0 -15 -19 -15 -95 -1 -52 2 -95 5 -95 4 0 21 10 38
22 40 27 74 76 94 136 9 26 28 63 42 82 40 53 58 94 80 177 36 144 26 180 -76
255 -60 44 -115 101 -115 119 0 14 4 12 98 -41 106 -60 117 -62 108 -17 -7 39
-51 79 -158 142 -165 98 -307 142 -499 155 -143 9 -229 27 -398 85 -251 84
-367 85 -676 5 -160 -42 -278 -60 -387 -60 -150 0 -408 49 -638 120 -52 17
-102 30 -111 30 -13 0 -21 -14 -30 -54z m1607 -131 c20 -8 58 -31 84 -50 46
-34 48 -37 39 -67 -13 -46 -19 -49 -73 -33 -27 8 -71 15 -97 15 -47 0 -48 1
-54 34 -4 19 -2 43 4 54 17 33 13 42 -20 42 -17 0 -28 4 -24 10 9 15 101 12
141 -5z m248 -117 c20 -1 36 -5 36 -9 0 -14 -87 -49 -124 -49 l-38 0 29 34
c17 21 34 33 44 30 9 -3 33 -5 53 -6z"/>
</g>
</svg>
