<?xml version="1.0" standalone="no"?>
<!DOCTYPE svg PUBLIC "-//W3C//DTD SVG 20010904//EN"
 "http://www.w3.org/TR/2001/REC-SVG-20010904/DTD/svg10.dtd">
<svg version="1.0" xmlns="http://www.w3.org/2000/svg"
 width="500.000000pt" height="500.000000pt" viewBox="0 0 500.000000 500.000000"
 preserveAspectRatio="xMidYMid meet">

<g transform="translate(0.000000,500.000000) scale(0.100000,-0.100000)"
fill="#000000" stroke="none">
<path d="M2115 4788 c-220 -115 -404 -213 -408 -217 -5 -5 17 -23 48 -40 171
-96 227 -219 229 -501 l1 -125 -220 -3 c-249 -3 -534 11 -675 33 -107 18 -241
60 -328 104 l-59 30 -349 -245 c-192 -135 -350 -248 -351 -252 -1 -4 155 -119
347 -255 l350 -248 67 41 c177 107 305 127 851 137 l362 6 0 -1220 c0 -832 -3
-1238 -11 -1279 -24 -132 -93 -226 -217 -297 -29 -16 -50 -33 -45 -37 16 -15
800 -420 812 -420 12 0 788 405 804 420 4 3 -20 28 -53 54 -73 58 -131 132
-160 205 -48 124 -50 164 -50 1410 l0 1164 300 -7 c494 -11 655 -35 857 -132
l72 -34 350 246 c193 135 351 249 350 253 0 3 -158 117 -350 253 l-350 248
-52 -35 c-168 -111 -384 -145 -919 -145 l-258 0 0 83 c0 105 23 258 49 328 28
72 83 143 159 204 34 27 59 52 54 56 -7 7 -790 422 -801 426 -4 1 -186 -93
-406 -209z"/>
</g>
</svg>
