<?xml version="1.0" standalone="no"?>
<!DOCTYPE svg PUBLIC "-//W3C//DTD SVG 20010904//EN"
 "http://www.w3.org/TR/2001/REC-SVG-20010904/DTD/svg10.dtd">
<svg version="1.0" xmlns="http://www.w3.org/2000/svg"
 width="512.000000pt" height="512.000000pt" viewBox="0 0 512.000000 512.000000"
 preserveAspectRatio="xMidYMid meet">

<g transform="translate(0.000000,512.000000) scale(0.100000,-0.100000)"
fill="#000000" stroke="none">
<path d="M2370 4600 c-570 -55 -948 -346 -1064 -820 -25 -99 -50 -315 -40
-332 3 -4 212 -8 464 -8 l460 0 4 23 c2 12 9 52 14 90 29 195 159 324 336 335
247 15 377 -121 378 -398 2 -221 -73 -335 -428 -657 -125 -113 -182 -188 -245
-318 -77 -160 -119 -368 -119 -596 l0 -109 389 0 389 0 7 67 c18 200 65 339
153 449 22 28 136 141 254 252 222 208 302 296 382 420 122 188 169 391 146
637 -25 276 -114 479 -282 641 -170 164 -366 255 -653 304 -140 24 -403 33
-545 20z"/>
<path d="M2376 1424 c-32 -8 -86 -29 -119 -47 -274 -145 -329 -509 -109 -719
107 -102 221 -143 392 -142 85 1 118 5 176 26 141 50 250 149 295 268 27 70
36 199 19 271 -39 167 -173 296 -356 344 -72 19 -219 18 -298 -1z"/>
</g>
</svg>
